<svg width="728" height="652" viewBox="0 0 728 652" fill="#2dd4bf" xmlns="http://www.w3.org/2000/svg">
<line x1="127.354" y1="332.529" x2="144.324" y2="349.499" stroke="#2dd4bf"/>
<line x1="161.295" y1="333.236" x2="144.324" y2="350.206" stroke="#2dd4bf"/>
<line x1="161.295" y1="332.529" x2="178.266" y2="349.499" stroke="#2dd4bf"/>
<line x1="195.236" y1="333.236" x2="178.265" y2="350.206" stroke="#2dd4bf"/>
<line x1="229.177" y1="332.529" x2="246.148" y2="349.499" stroke="#2dd4bf"/>
<line x1="263.118" y1="333.236" x2="246.147" y2="350.206" stroke="#2dd4bf"/>
<line x1="195.236" y1="332.529" x2="212.206" y2="349.499" stroke="#2dd4bf"/>
<line x1="229.177" y1="333.236" x2="212.206" y2="350.206" stroke="#2dd4bf"/>
<line x1="631" y1="312.5" x2="655" y2="312.5" stroke="#2dd4bf"/>
<line x1="655.5" y1="289" x2="655.5" y2="313" stroke="#2dd4bf"/>
<line x1="655" y1="288.5" x2="679" y2="288.5" stroke="#2dd4bf"/>
<line x1="679.5" y1="265" x2="679.5" y2="289" stroke="#2dd4bf"/>
<line x1="703" y1="240.5" x2="727" y2="240.5" stroke="#2dd4bf"/>
<line x1="727.5" y1="217" x2="727.5" y2="241" stroke="#2dd4bf"/>
<line x1="679" y1="264.5" x2="703" y2="264.5" stroke="#2dd4bf"/>
<line x1="703.5" y1="241" x2="703.5" y2="265" stroke="#2dd4bf"/>
<line x1="0.5" y1="436" x2="0.499998" y2="460" stroke="#2dd4bf"/>
<line x1="24" y1="460.5" x2="1.45237e-06" y2="460.5" stroke="#2dd4bf"/>
<line x1="24.5" y1="460" x2="24.5" y2="484" stroke="#2dd4bf"/>
<line x1="48" y1="484.5" x2="24" y2="484.5" stroke="#2dd4bf"/>
<line x1="72.5" y1="508" x2="72.5" y2="532" stroke="#2dd4bf"/>
<line x1="96" y1="532.5" x2="72" y2="532.5" stroke="#2dd4bf"/>
<line x1="48.5" y1="484" x2="48.5" y2="508" stroke="#2dd4bf"/>
<line x1="72" y1="508.5" x2="48" y2="508.5" stroke="#2dd4bf"/>
<line x1="459" y1="435.5" x2="679" y2="435.5" stroke="#2dd4bf" stroke-dasharray="1 20"/>
<line x1="459" y1="453.5" x2="679" y2="453.5" stroke="#2dd4bf" stroke-dasharray="1 20"/>
<line x1="459" y1="471.5" x2="679" y2="471.5" stroke="#2dd4bf" stroke-dasharray="1 20"/>
<line x1="459" y1="489.5" x2="679" y2="489.5" stroke="#2dd4bf" stroke-dasharray="1 20"/>
<line x1="459" y1="507.5" x2="679" y2="507.5" stroke="#2dd4bf" stroke-dasharray="1 20"/>
<line x1="459" y1="525.5" x2="679" y2="525.5" stroke="#2dd4bf" stroke-dasharray="1 20"/>
<line x1="458" y1="543.5" x2="678" y2="543.5" stroke="#2dd4bf" stroke-dasharray="1 20"/>
<line x1="459" y1="561.5" x2="679" y2="561.5" stroke="#2dd4bf" stroke-dasharray="1 20"/>
<line x1="459" y1="579.5" x2="679" y2="579.5" stroke="#2dd4bf" stroke-dasharray="1 20"/>
<line x1="459" y1="597.5" x2="679" y2="597.5" stroke="#2dd4bf" stroke-dasharray="1 20"/>
<line x1="459" y1="615.5" x2="679" y2="615.5" stroke="#2dd4bf" stroke-dasharray="1 20"/>
<line x1="459" y1="633.5" x2="679" y2="633.5" stroke="#2dd4bf" stroke-dasharray="1 20"/>
<line x1="459" y1="651.5" x2="679" y2="651.5" stroke="#2dd4bf" stroke-dasharray="1 20"/>
<line x1="96" y1="0.5" x2="316" y2="0.5" stroke="#2dd4bf" stroke-dasharray="1 20"/>
<line x1="96" y1="18.5" x2="316" y2="18.5" stroke="#2dd4bf" stroke-dasharray="1 20"/>
<line x1="96" y1="36.5" x2="316" y2="36.5" stroke="#2dd4bf" stroke-dasharray="1 20"/>
<line x1="96" y1="54.5" x2="316" y2="54.5" stroke="#2dd4bf" stroke-dasharray="1 20"/>
<line x1="96" y1="72.5" x2="316" y2="72.5" stroke="#2dd4bf" stroke-dasharray="1 20"/>
<line x1="96" y1="90.5" x2="316" y2="90.5" stroke="#2dd4bf" stroke-dasharray="1 20"/>
<line x1="96" y1="108.5" x2="316" y2="108.5" stroke="#2dd4bf" stroke-dasharray="1 20"/>
<line x1="96" y1="126.5" x2="316" y2="126.5" stroke="#2dd4bf" stroke-dasharray="1 20"/>
<line x1="96" y1="144.5" x2="316" y2="144.5" stroke="#2dd4bf" stroke-dasharray="1 20"/>
<line x1="96" y1="162.5" x2="316" y2="162.5" stroke="#2dd4bf" stroke-dasharray="1 20"/>
<line x1="96" y1="180.5" x2="316" y2="180.5" stroke="#2dd4bf" stroke-dasharray="1 20"/>
<line x1="96" y1="198.5" x2="316" y2="198.5" stroke="#2dd4bf" stroke-dasharray="1 20"/>
<line x1="96" y1="216.5" x2="316" y2="216.5" stroke="#2dd4bf" stroke-dasharray="1 20"/>
</svg>
