<svg width="25" height="28" viewBox="0 0 25 28" fill="none" xmlns="http://www.w3.org/2000/svg">
  <path d="M14.7386 22.536C8.21154 13.0737 7 12.1025 7 8.625C7 3.86153 10.8615 0 15.625 0C20.3885 0 24.25 3.86153 24.25 8.625C24.25 12.1025 23.0385 13.0737 16.5114 22.536C16.0831 23.1547 15.1669 23.1547 14.7386 22.536ZM15.625 12.2187C17.6098 12.2187 19.2188 10.6098 19.2188 8.625C19.2188 6.64022 17.6098 5.03125 15.625 5.03125C13.6402 5.03125 12.0312 6.64022 12.0312 8.625C12.0312 10.6098 13.6402 12.2187 15.625 12.2187Z" fill="#E6365B"/>
  <circle cx="15.625" cy="8.62502" r="3.83333" fill="white"/>
  <circle cx="8.62496" cy="13.625" r="3.83333" fill="white"/>
  <path d="M7.7386 27.536C1.21154 18.0737 0 17.1025 0 13.625C0 8.86153 3.86153 5 8.625 5C13.3885 5 17.25 8.86153 17.25 13.625C17.25 17.1025 16.0385 18.0737 9.5114 27.536C9.08307 28.1547 8.16689 28.1547 7.7386 27.536ZM8.625 17.2187C10.6098 17.2187 12.2188 15.6098 12.2188 13.625C12.2188 11.6402 10.6098 10.0312 8.625 10.0312C6.64022 10.0312 5.03125 11.6402 5.03125 13.625C5.03125 15.6098 6.64022 17.2187 8.625 17.2187Z" fill="#52B396"/>
  </svg>